<?xml version="1.0" encoding="UTF-8"?>
<svg width="74px" height="13px" viewBox="0 0 74 13" version="1.1" xmlns="http://www.w3.org/2000/svg" xmlns:xlink="http://www.w3.org/1999/xlink">
    <!-- Generator: Sketch 64 (93537) - https://sketch.com -->
    <title>thelonious</title>
    <desc>Created with Sketch.</desc>
    <g id="Page-1" stroke="none" stroke-width="1" fill="none" fill-rule="evenodd">
        <g id="Desktop" transform="translate(-321.000000, -385.000000)" fill="#000000" fill-rule="nonzero">
            <path d="M325.944,396.984 L325.944,395.384 C325.944,395.384 325.576,395.4 325.304,395.4 C324.824,395.4 324.488,395.192 324.488,394.584 L324.488,390.232 L325.896,390.232 L325.896,388.792 L324.488,388.792 L324.488,386.232 L322.36,386.232 L322.36,388.792 L321.224,388.792 L321.224,390.232 L322.36,390.232 L322.36,395.048 C322.36,396.6 323.528,397.016 324.584,397.016 C325.448,397.016 325.944,396.984 325.944,396.984 Z M329.192,397 L329.192,392.344 C329.192,391.224 329.896,390.456 330.856,390.456 C331.768,390.456 332.28,391.08 332.28,391.96 L332.28,397 L334.456,397 L334.456,391.64 C334.456,389.848 333.32,388.568 331.624,388.568 C330.504,388.568 329.832,389 329.24,389.864 L329.192,389.864 L329.192,385.56 L327.016,385.56 L327.016,397 L329.192,397 Z M339.656,397.24 C341.768,397.24 343.064,396.008 343.368,394.552 L341.224,394.552 C340.984,395.176 340.488,395.56 339.64,395.56 C338.408,395.56 337.704,394.776 337.544,393.512 L343.496,393.512 C343.496,390.584 342.088,388.568 339.448,388.568 C337.048,388.568 335.4,390.456 335.4,392.888 C335.4,395.336 336.936,397.24 339.656,397.24 Z M341.224,392.008 L337.576,392.008 C337.768,390.936 338.328,390.248 339.48,390.248 C340.472,390.248 341.16,390.968 341.224,392.008 Z M346.712,397 L346.712,385.56 L344.536,385.56 L344.536,397 L346.712,397 Z M352.04,397.24 C354.584,397.24 356.328,395.352 356.328,392.904 C356.328,390.456 354.584,388.568 352.04,388.568 C349.496,388.568 347.752,390.456 347.752,392.904 C347.752,395.352 349.496,397.24 352.04,397.24 Z M352.04,395.576 C350.696,395.576 349.96,394.504 349.96,392.904 C349.96,391.304 350.696,390.216 352.04,390.216 C353.368,390.216 354.12,391.304 354.12,392.904 C354.12,394.504 353.368,395.576 352.04,395.576 Z M359.512,397 L359.512,392.344 C359.512,391.224 360.216,390.456 361.176,390.456 C362.088,390.456 362.6,391.08 362.6,391.96 L362.6,397 L364.776,397 L364.776,391.64 C364.776,389.848 363.64,388.568 361.944,388.568 C360.824,388.568 360.072,389.032 359.512,389.912 L359.464,389.912 L359.464,388.792 L357.336,388.792 L357.336,397 L359.512,397 Z M368.296,387.512 L368.296,385.56 L366.12,385.56 L366.12,387.512 L368.296,387.512 Z M368.296,397 L368.296,388.792 L366.12,388.792 L366.12,397 L368.296,397 Z M373.592,397.24 C376.136,397.24 377.88,395.352 377.88,392.904 C377.88,390.456 376.136,388.568 373.592,388.568 C371.048,388.568 369.304,390.456 369.304,392.904 C369.304,395.352 371.048,397.24 373.592,397.24 Z M373.592,395.576 C372.248,395.576 371.512,394.504 371.512,392.904 C371.512,391.304 372.248,390.216 373.592,390.216 C374.92,390.216 375.672,391.304 375.672,392.904 C375.672,394.504 374.92,395.576 373.592,395.576 Z M381.672,397.224 C382.824,397.224 383.464,396.792 384.024,396.04 L384.072,396.04 L384.072,397 L386.168,397 L386.168,388.792 L383.992,388.792 L383.992,393.528 C383.992,394.616 383.368,395.384 382.344,395.384 C381.416,395.384 380.984,394.856 380.984,393.896 L380.984,388.792 L378.824,388.792 L378.824,394.264 C378.824,396.056 379.848,397.224 381.672,397.224 Z M390.904,397.24 C392.952,397.24 394.36,396.248 394.36,394.6 C394.36,392.68 392.84,392.296 391.464,392.008 C390.296,391.768 389.208,391.704 389.208,391 C389.208,390.408 389.768,390.088 390.616,390.088 C391.544,390.088 392.104,390.408 392.2,391.288 L394.168,391.288 C394.008,389.64 392.808,388.568 390.648,388.568 C388.776,388.568 387.304,389.416 387.304,391.192 C387.304,392.984 388.744,393.384 390.216,393.672 C391.336,393.896 392.376,393.976 392.376,394.76 C392.376,395.336 391.832,395.704 390.872,395.704 C389.896,395.704 389.224,395.288 389.08,394.344 L387.064,394.344 C387.192,396.088 388.52,397.24 390.904,397.24 Z" id="thelonious"></path>
        </g>
    </g>
</svg>